<svg width="212" height="80" viewBox="0 0 212 80" fill="none" xmlns="http://www.w3.org/2000/svg">
<g clip-path="url(#clip0_61583_179770)">
<path d="M25.7385 42.9293L9.65723 51.3368L51.0238 64.0115L25.7385 42.9293Z" fill="url(#paint0_linear_61583_179770)"/>
<path d="M25.7385 42.9293L13.2489 34.114L9.65723 51.3368L25.7385 42.9293Z" fill="url(#paint1_linear_61583_179770)"/>
<path d="M13.249 34.114L26.5843 25.6239L25.7386 42.9293L13.249 34.114Z" fill="url(#paint2_linear_61583_179770)"/>
<path d="M34.1799 37.5553L25.7383 42.9293L51.0235 64.0115L42.6209 32.1807L34.1799 37.5553Z" fill="url(#paint3_linear_61583_179770)"/>
<path d="M42.6211 32.1807L57.044 21.168L51.0238 64.0115L42.6211 32.1807Z" fill="url(#paint4_linear_61583_179770)"/>
<path d="M42.6211 32.1807L39.9194 17.1338L57.044 21.168L42.6211 32.1807Z" fill="url(#paint5_linear_61583_179770)"/>
<path d="M26.5839 25.6239L25.7383 42.9293L34.1799 37.5553L42.6209 32.1807L26.5839 25.6239Z" fill="url(#paint6_linear_61583_179770)"/>
<path d="M39.9193 17.1338L26.584 25.6239L42.6209 32.1807L39.9193 17.1338Z" fill="url(#paint7_linear_61583_179770)"/>
<path d="M42.6216 32.1807L43.7002 36.1521L44.7669 40.127L46.881 48.0811L48.9682 56.0418L50.0019 60.0251L51.0243 64.0115L49.9456 60.0401L48.879 56.0657L46.7654 48.1117L44.6782 40.1504L43.6439 36.1671L42.6216 32.1807Z" fill="url(#paint8_linear_61583_179770)"/>
<path d="M42.6212 32.1807C41.645 27.1978 40.7371 22.1454 39.9189 17.1338C40.8958 22.1167 41.8025 27.1697 42.6212 32.1807Z" fill="white"/>
<path d="M26.5845 25.6239C27.2576 25.8844 27.9284 26.1527 28.6004 26.4162L30.6115 27.2206C31.9519 27.7578 33.288 28.3052 34.626 28.8472C35.961 29.3982 37.2971 29.9438 38.6303 30.499L40.6288 31.3339C41.293 31.6166 41.9596 31.895 42.6226 32.1807C41.9494 31.9202 41.2787 31.6525 40.6067 31.3884L38.5956 30.584C37.2552 30.0462 35.919 29.4994 34.5811 28.9574C33.2467 28.4064 31.91 27.8608 30.5768 27.305L28.5782 26.4701C27.9134 26.1881 27.2475 25.909 26.5845 25.6233V25.6239Z" fill="url(#paint9_linear_61583_179770)"/>
<path d="M26.5843 25.6239C26.3837 31.3752 26.1004 37.1858 25.7393 42.9293C25.9393 37.178 26.2238 31.3674 26.5843 25.6239Z" fill="white"/>
<path d="M25.7388 42.9293C31.1223 39.4089 37.1533 35.5687 42.6214 32.1807C37.2384 35.7017 31.2068 39.5407 25.7388 42.9293Z" fill="white"/>
<path d="M25.7387 42.9293C21.5446 40.0672 17.3505 37.1074 13.2485 34.114C17.4433 36.9756 21.6368 39.9366 25.7387 42.9293Z" fill="white"/>
<path d="M25.7388 42.9293L28.9184 45.5424L32.0896 48.1644L38.42 53.4246L44.7319 58.7057L47.8822 61.3535L51.024 64.0115L47.8444 61.3984L44.6732 58.7764L38.3434 53.5162L32.0309 48.235L28.8812 45.5867L25.7388 42.9293Z" fill="url(#paint10_linear_61583_179770)"/>
<path d="M23.3522 44.178L23.3516 44.1768" stroke="url(#paint11_linear_61583_179770)" stroke-width="4" stroke-miterlimit="10"/>
<path d="M13.249 34.114L0 27.0715L26.5843 25.6239L13.249 34.114Z" fill="url(#paint12_linear_61583_179770)"/>
<path d="M0 27.0715L13.8204 22.3928L26.5843 25.6239L0 27.0715Z" fill="url(#paint13_linear_61583_179770)"/>
<path d="M13.8205 22.3928L8.62256 14.2285L26.5844 25.6239L13.8205 22.3928Z" fill="url(#paint14_linear_61583_179770)"/>
<path d="M8.62256 14.2285L20.4342 15.9636L26.5844 25.6239L8.62256 14.2285Z" fill="url(#paint15_linear_61583_179770)"/>
<path d="M20.4341 15.9635L25.1774 3.68829L26.5843 25.6239L20.4341 15.9635Z" fill="url(#paint16_linear_61583_179770)"/>
<path d="M25.1772 3.68829L30.3488 11.8113L26.5841 25.6239L25.1772 3.68829Z" fill="url(#paint17_linear_61583_179770)"/>
<path d="M26.5845 25.6239L39.3801 2L30.3492 11.8113L26.5845 25.6239Z" fill="url(#paint18_linear_61583_179770)"/>
<path d="M39.9197 17.1338L39.3801 2L26.5845 25.6239L39.9197 17.1338Z" fill="url(#paint19_linear_61583_179770)"/>
<path fill-rule="evenodd" clip-rule="evenodd" d="M99.8646 52.8658C99.8646 52.5556 99.9862 52.2112 100.386 52.2112H101.399C101.542 52.2112 101.677 52.2711 101.773 52.3747L107.892 59.9155V52.8119C107.892 52.552 108.143 52.3208 108.414 52.3208H109.462C109.734 52.3208 109.983 52.5538 109.983 52.8119V63.6282C109.983 63.8881 109.733 64.1193 109.462 64.1193H108.414C108.27 64.1193 108.132 64.0582 108.036 63.9522L101.955 56.2077V63.5209C101.955 63.7809 101.705 64.0121 101.434 64.0121H100.386C100.114 64.0121 99.8646 63.7791 99.8646 63.5209V52.8664V52.8658ZM60.0098 58.3841C60.0098 55.1273 62.8767 52.3202 66.348 52.3202C68.1423 52.3202 69.3449 52.8861 70.5344 53.8905L70.5415 53.8959C70.7242 54.0672 70.7254 54.3858 70.5469 54.5601L69.8438 55.3303C69.66 55.5034 69.3413 55.4962 69.1449 55.3387C68.3549 54.7032 67.3464 54.2852 66.3474 54.2852C64.0063 54.2852 62.2149 56.1712 62.2149 58.2739C62.2149 60.3767 64.0069 62.2626 66.3474 62.2626C67.5716 62.2626 68.3466 61.85 69.1395 61.2122C69.3252 61.0433 69.66 61.0463 69.8426 61.2175L70.6577 61.9824C70.8434 62.1566 70.8434 62.4777 70.6577 62.6519C69.4551 63.7815 67.8962 64.2295 66.3492 64.2295C62.8863 64.2295 60.011 61.6494 60.011 58.3847H60.0098V58.3841ZM84.7488 55.4339C84.7488 54.148 85.8664 52.3202 88.6435 52.3202C89.9982 52.3202 91.0715 52.8251 91.5806 53.1287C91.6926 53.1952 91.8129 53.2647 91.9088 53.3545C92.0525 53.4892 92.3016 53.7246 92.0513 54.0923C91.8962 54.3193 91.7399 54.5469 91.5752 54.7673C91.3416 55.0817 91.1158 55.0979 90.7756 54.9087C90.0977 54.5331 89.3383 54.1768 88.5261 54.1768C87.2157 54.1768 86.7204 54.9865 86.7204 55.4345C86.7204 56.2185 87.3361 56.7126 88.819 57.2486H88.8232C90.8158 58.02 92.5364 58.9495 92.5364 61.0073C92.5364 62.7573 90.8068 64.2301 88.5255 64.2301C87.1421 64.2301 85.743 63.8108 84.7758 62.8472C84.5488 62.6202 84.6069 62.3692 84.765 62.1357C84.9465 61.8674 85.0513 61.7152 85.2435 61.4553C85.443 61.1888 85.8011 61.1247 86.0862 61.3289C86.8318 61.8596 87.6715 62.374 88.6399 62.374C89.7395 62.374 90.4456 61.7632 90.4456 61.0079C90.4456 60.1371 89.6048 59.6227 87.9925 58.9734C86.2257 58.3093 84.7452 57.372 84.7452 55.4351H84.7482L84.7488 55.4339ZM95.4681 52.4304C95.198 52.4304 94.9464 52.6616 94.9464 52.9215V63.5197C94.9464 63.7767 95.1944 64.0109 95.4681 64.0109H96.6317C96.9019 64.0109 97.1534 63.7797 97.1534 63.5197V52.9215C97.1534 52.6646 96.906 52.4304 96.6317 52.4304H95.4681ZM78.071 52.6616C77.8566 52.2699 77.3541 52.2303 77.1523 52.6586L71.9406 63.3197C71.7855 63.6042 72.0418 63.9947 72.3808 64.0031C72.7695 64.0115 73.4822 64.0115 73.4822 64.0115C73.7199 64.0115 73.9098 63.8683 73.9996 63.6713C74.3278 62.9544 74.6584 62.3279 74.9914 61.6068H80.3517L81.3393 63.6683C81.3644 63.8845 81.5968 64.0097 81.8579 64.0097H82.9054C83.2821 64.0097 83.448 63.6329 83.2929 63.3389L78.0728 52.6598L78.0716 52.661L78.071 52.6616ZM75.7275 59.861L77.6117 55.9268L79.4958 59.861H75.7257H75.7269H75.7275ZM118.213 52.3232C114.742 52.3232 111.991 55.0219 111.991 58.2769C111.991 61.532 114.746 64.1216 118.213 64.1216C121.68 64.1216 124.551 61.5386 124.551 58.2769C124.551 55.0153 121.68 52.3232 118.213 52.3232ZM113.964 58.1697C113.964 55.9663 115.863 54.181 118.213 54.181C120.562 54.181 122.461 55.9663 122.461 58.1697C122.461 60.3731 120.563 62.1584 118.213 62.1584C115.863 62.1584 113.964 60.3731 113.964 58.1697Z" fill="url(#paint20_linear_61583_179770)"/>
<path d="M189.475 24.5279C189.475 24.5279 189.479 24.5273 189.48 24.5267C189.343 24.589 189.225 24.6932 189.149 24.8298L178.195 44.4122H174.77C174.535 44.4122 174.316 44.2979 174.181 44.1056L167.088 33.9739C166.96 33.7906 166.672 33.8679 166.653 34.0907L166.149 39.8492L171.436 47.3996C171.571 47.5918 171.79 47.7062 172.025 47.7062H184.666C184.786 47.7062 184.902 47.6757 185.005 47.6212L191.489 44.3344C191.39 44.3847 191.279 44.4122 191.164 44.4122H186.757H183.464C183.19 44.4122 183.017 44.117 183.151 43.8774L194.011 24.462L195.647 21.5364C195.715 21.4154 195.814 21.319 195.932 21.2555L189.476 24.5279H189.475Z" fill="url(#paint21_linear_61583_179770)"/>
<path d="M112.851 40.9541C112.798 40.7409 112.606 40.5912 112.386 40.5912H104.64C104.413 40.5912 104.206 40.7193 104.104 40.9224L102.558 44.0151C102.436 44.2589 102.187 44.4122 101.915 44.4122H96.8997L99.6271 25.0082C99.6499 24.8465 99.5894 24.6944 99.4804 24.592L99.4121 24.5381C99.4121 24.5381 99.4079 24.5363 99.4061 24.5351C99.4073 24.5351 99.4079 24.5357 99.4091 24.5363L95.291 21.301C95.3982 21.4034 95.4569 21.5537 95.4348 21.7142L95.0485 24.462L92.3169 43.8965C92.2749 44.1924 92.0222 44.4122 91.7233 44.4122H88.8887H84.7844C84.7682 44.4122 84.7526 44.4116 84.7365 44.4098L84.6934 44.4709L88.6809 47.6032C88.7617 47.6673 88.8642 47.7062 88.9767 47.7062H97.8088H105.508C105.781 47.7062 106.029 47.5529 106.151 47.3091L107.697 44.2164C107.799 44.0133 108.006 43.8852 108.233 43.8852H113.584L112.851 40.9541Z" fill="url(#paint22_linear_61583_179770)"/>
<path d="M75.5443 42.3292C75.5324 42.3268 75.5204 42.3238 75.509 42.3208C75.5078 42.3202 75.5066 42.3202 75.5054 42.3196C75.5042 42.319 75.5024 42.319 75.5012 42.3184C75.494 42.3166 75.4869 42.3142 75.4797 42.3119C75.4779 42.3119 75.4767 42.3107 75.4749 42.3101C75.4689 42.3083 75.4635 42.3065 75.4581 42.3041C75.4581 42.3041 75.4563 42.3035 75.4557 42.3035C75.4467 42.3005 75.4377 42.2969 75.4294 42.2927C75.4216 42.2897 75.4144 42.2861 75.4072 42.2825C75.3994 42.2789 75.3916 42.2753 75.3844 42.2711C75.3635 42.2603 75.3437 42.2478 75.3245 42.2346L75.3144 42.2268L75.2838 42.2029L75.2688 42.1909C75.2641 42.1861 75.2593 42.1819 75.2551 42.1771C75.2359 42.1597 75.2185 42.14 75.2024 42.1196C75.1982 42.1142 75.1946 42.1094 75.1904 42.1046C75.1862 42.0998 75.1826 42.0944 75.179 42.0891C75.1718 42.0789 75.1646 42.0681 75.1581 42.0573C75.1509 42.0459 75.1443 42.0346 75.1383 42.0226C75.1257 41.9992 75.1149 41.9753 75.1059 41.9501L72.1246 33.8295L70.71 43.8966C70.668 44.1924 70.4153 44.4122 70.1164 44.4122H63.1775C63.0943 44.4122 63.0164 44.3913 62.9487 44.3541L67.0177 47.5511L67.0189 47.5523C67.0536 47.59 67.0944 47.6224 67.1399 47.6475L67.1417 47.6487C67.2099 47.6852 67.2872 47.7062 67.3699 47.7062H74.3088C74.6077 47.7062 74.8604 47.4864 74.9023 47.1905L75.5713 42.4286L75.5845 42.3364C75.5707 42.3346 75.5575 42.3322 75.5443 42.3292Z" fill="url(#paint23_linear_61583_179770)"/>
<path d="M78.552 25.5149C78.5077 25.4197 78.4389 25.3406 78.3562 25.2813C78.3586 25.2825 73.3032 21.3118 73.3032 21.3118C73.3673 21.3663 73.42 21.4345 73.4571 21.5136L74.8298 24.4614L78.5898 32.5353C78.667 32.7012 78.894 32.7227 79.0012 32.5748L81.2831 31.3782L78.552 25.5143V25.5149Z" fill="url(#paint24_linear_61583_179770)"/>
<path d="M173.006 24.6195C173.006 24.6195 173.007 24.6189 173.008 24.6183C172.9 24.7166 172.828 24.8537 172.814 25.0094L172.478 28.849L174.278 31.4968C174.404 31.6831 174.695 31.6076 174.714 31.383L175.319 24.4632H175.32L175.56 21.716C175.568 21.6196 175.6 21.5298 175.647 21.4525L173.006 24.6207L173.006 24.6195Z" fill="url(#paint25_linear_61583_179770)"/>
<path d="M84.6872 44.402C84.6752 44.4002 84.6632 44.3972 84.6518 44.3937C84.6404 44.3901 84.6291 44.3865 84.6183 44.3823C84.6105 44.3799 84.6027 44.3763 84.5955 44.3733C84.5877 44.3703 84.5799 44.3667 84.5722 44.3625C84.5656 44.3595 84.559 44.3559 84.553 44.3523C84.5446 44.3481 84.5362 44.3433 84.5278 44.338C84.5177 44.3314 84.5081 44.3248 84.4985 44.3176L84.4823 44.305C84.4763 44.3002 84.4703 44.2948 84.4644 44.2894C84.459 44.2847 84.4542 44.2799 84.4494 44.2757C84.4488 44.2745 84.4476 44.2739 84.447 44.2733C84.4398 44.2661 84.4326 44.2583 84.4254 44.2505C84.417 44.2409 84.4093 44.2319 84.4021 44.2218C84.3961 44.214 84.3907 44.2062 84.3853 44.1978C84.3817 44.193 84.3787 44.1876 84.3757 44.1828C84.3745 44.181 84.3733 44.1786 84.3721 44.1768C84.3661 44.1673 84.3607 44.1577 84.356 44.1475C84.3506 44.1379 84.3464 44.1283 84.3422 44.1182C84.3362 44.1038 84.3308 44.0888 84.326 44.0738C84.3224 44.0619 84.3188 44.0493 84.3164 44.0361C84.3146 44.0301 84.3134 44.0241 84.3128 44.0175C84.3128 44.0169 84.3128 44.0163 84.3128 44.0157C84.3104 44.0038 84.3092 43.9918 84.308 43.9798C84.3062 43.9648 84.3056 43.9493 84.3056 43.9343C84.3056 43.9121 84.3074 43.8894 84.3104 43.8666L85.7209 33.8295L79.8522 42.0903C79.7396 42.2484 79.5575 42.3424 79.3635 42.3424H75.6688C75.6407 42.3424 75.6125 42.3406 75.585 42.3364L75.5718 42.4286L79.4749 45.495L79.518 45.5286C79.6162 45.5975 79.7354 45.6364 79.8612 45.6364H83.5558C83.7499 45.6364 83.9319 45.5424 84.0445 45.3842L84.6937 44.4709L84.7369 44.4098C84.7231 44.4086 84.7093 44.4062 84.6955 44.4038C84.6931 44.4032 84.6901 44.4026 84.6877 44.402H84.6872Z" fill="url(#paint26_linear_61583_179770)"/>
<path d="M165.643 44.2164C165.533 44.3374 165.375 44.4122 165.2 44.4122H163.291H158.309C158.028 44.4122 157.807 44.1715 157.832 43.8912L158.673 34.2751L157.832 43.8918L159.772 21.7148C159.782 21.6029 159.823 21.5004 159.884 21.4148L157.192 24.6441C157.192 24.6441 157.197 24.6405 157.199 24.6387C157.103 24.7351 157.039 24.8639 157.026 25.0094L155.086 47.1858C155.062 47.4661 155.283 47.7068 155.564 47.7068H162.455C162.643 47.7068 162.813 47.6194 162.923 47.4816C162.923 47.4816 162.923 47.4822 162.923 47.4828L165.645 44.217L165.643 44.2164Z" fill="url(#paint27_linear_61583_179770)"/>
<path d="M211.64 44.4122H203.431C203.156 44.4122 202.916 44.2254 202.85 43.9588L202.099 40.9541C202.045 40.7409 201.854 40.5912 201.634 40.5912H193.888C193.661 40.5912 193.454 40.7194 193.352 40.9224L191.871 43.8852H195.136C195.356 43.8852 195.547 44.0349 195.601 44.2481L196.352 47.2528C196.419 47.5193 196.658 47.7062 196.933 47.7062H205.142C205.206 47.7062 205.265 47.69 205.316 47.6619H205.317L211.793 44.3781C211.747 44.4002 211.695 44.4122 211.64 44.4122Z" fill="url(#paint28_linear_61583_179770)"/>
<path d="M136.886 24.653C136.886 24.653 136.888 24.6542 136.888 24.6554L134.831 21.4219C134.874 21.5034 134.895 21.5986 134.884 21.698L134.59 24.462L133.208 37.4942C133.185 37.7062 133.352 37.8913 133.566 37.8913H135.612L136.98 24.9914C136.993 24.8651 136.956 24.7459 136.886 24.6524V24.653Z" fill="url(#paint29_linear_61583_179770)"/>
<path d="M154.299 44.1577C154.19 44.3128 154.01 44.4122 153.809 44.4122H152.597H146.55C146.195 44.4122 145.918 44.1044 145.954 43.751L146.946 34.2871L148.264 21.7046C148.273 21.6226 148.298 21.5465 148.336 21.4782L146.281 24.7076C146.22 24.7908 146.18 24.8896 146.168 24.9986L144.613 39.8389L143.524 38.1273C143.574 38.2123 143.599 38.3141 143.587 38.4207L143.298 41.1853L143.017 43.8762C142.984 44.181 142.727 44.4122 142.421 44.4122H125.355L118.617 24.8657C118.58 24.7585 118.514 24.6674 118.431 24.5986L114.879 21.3429C114.944 21.4058 114.993 21.483 115.023 21.5711L116.02 24.4614H116.019L122.733 43.9349C122.813 44.1684 122.64 44.4116 122.393 44.4116H116.487H114.185C114.042 44.4116 113.908 44.3613 113.803 44.2739L117.349 47.5247C117.46 47.6373 117.612 47.7062 117.778 47.7062H126.672H144.451C144.453 47.7062 144.454 47.7062 144.456 47.7062H151.715C151.93 47.7062 152.12 47.5924 152.226 47.4187L154.301 44.1571L154.299 44.1577Z" fill="url(#paint30_linear_61583_179770)"/>
<path d="M200.495 35.1513H196.431C196.342 35.1513 196.284 35.0573 196.324 34.9777L199.033 29.5593C199.083 29.4599 199.23 29.4761 199.257 29.5839L200.611 35.0022C200.63 35.0777 200.572 35.1513 200.495 35.1513Z" fill="url(#paint31_linear_61583_179770)"/>
<path d="M95.4345 21.7142L95.0482 24.462L92.3166 43.8966C92.2747 44.1924 92.0219 44.4122 91.7231 44.4122H84.7842C84.768 44.4122 84.7524 44.4116 84.7362 44.4098C84.4691 44.3835 84.2715 44.1385 84.3098 43.8666L85.652 34.3164C85.6693 34.1925 85.5082 34.1284 85.4358 34.2302L79.8516 42.0903C79.739 42.2484 79.5569 42.3424 79.3628 42.3424H75.6682C75.64 42.3424 75.6119 42.3406 75.5843 42.3364C75.3681 42.3059 75.1831 42.1597 75.1058 41.9501L72.2891 34.2781C72.246 34.1613 72.0753 34.1793 72.058 34.3027L70.7098 43.8966C70.6679 44.1924 70.4152 44.4122 70.1163 44.4122H63.1774C62.8863 44.4122 62.6623 44.1547 62.703 43.8666L65.8347 21.5807C65.8677 21.3441 66.0701 21.168 66.3091 21.168H72.9132C73.1462 21.168 73.3582 21.3034 73.4564 21.5142L74.8291 24.462L78.5891 32.5359C78.6663 32.7018 78.8933 32.7233 79.0005 32.5754L80.3798 30.6721L87.0881 21.4154C87.2007 21.2603 87.381 21.168 87.5733 21.168H94.9596C95.0548 21.168 95.1434 21.1956 95.2171 21.2429C95.2435 21.2597 95.2674 21.2782 95.2896 21.2998C95.3974 21.4022 95.4567 21.5531 95.4345 21.7142Z" fill="url(#paint32_linear_61583_179770)"/>
<path d="M183.527 21.6891L181.586 43.8654C181.559 44.1751 181.3 44.4122 180.99 44.4122H174.77C174.535 44.4122 174.316 44.2978 174.181 44.1056L167.088 33.9739C166.96 33.7906 166.672 33.8679 166.653 34.0907L165.798 43.8654C165.771 44.1751 165.512 44.4122 165.201 44.4122H158.31C158.029 44.4122 157.808 44.1715 157.832 43.8912L159.772 21.7148C159.799 21.4052 160.059 21.168 160.369 21.168H166.878C167.116 21.168 167.339 21.286 167.472 21.4825L174.278 31.4956C174.405 31.6818 174.696 31.6064 174.715 31.3818L175.56 21.7148C175.587 21.4052 175.846 21.168 176.157 21.168H183.049C183.33 21.168 183.551 21.4088 183.526 21.6891H183.527Z" fill="url(#paint33_linear_61583_179770)"/>
<path d="M203.704 21.168H196.274C196.013 21.168 195.774 21.3088 195.647 21.5358L183.15 43.8774C183.016 44.117 183.189 44.4122 183.464 44.4122H191.163C191.436 44.4122 191.684 44.2583 191.806 44.0151L193.352 40.9224C193.453 40.7194 193.661 40.5912 193.888 40.5912H201.634C201.854 40.5912 202.045 40.7409 202.099 40.9541L202.85 43.9589C202.916 44.2254 203.156 44.4122 203.431 44.4122H211.64C211.887 44.4122 212.06 44.1691 211.979 43.9355L204.27 21.5717C204.186 21.3303 203.959 21.168 203.704 21.168ZM196.324 34.9776L199.033 29.5593C199.083 29.4599 199.229 29.4761 199.256 29.5839L200.611 35.0022C200.63 35.0777 200.573 35.1513 200.495 35.1513H196.431C196.342 35.1513 196.284 35.0579 196.324 34.9782V34.9776Z" fill="url(#paint34_linear_61583_179770)"/>
<path d="M114.456 21.168H106.955C106.738 21.168 106.538 21.2854 106.432 21.4747L93.9013 43.8774C93.7672 44.117 93.9403 44.4122 94.2152 44.4122H101.915C102.187 44.4122 102.436 44.2583 102.557 44.0151L104.104 40.9224C104.205 40.7194 104.413 40.5912 104.639 40.5912H112.385C112.605 40.5912 112.797 40.7409 112.85 40.9541L113.601 43.9589C113.668 44.2254 113.907 44.4122 114.182 44.4122H122.391C122.638 44.4122 122.812 44.1691 122.731 43.9355L115.021 21.5717C114.938 21.3303 114.71 21.168 114.455 21.168H114.456ZM107.076 34.9776L109.785 29.5593C109.835 29.4599 109.981 29.4761 110.008 29.5839L111.363 35.0022C111.382 35.0777 111.325 35.1513 111.247 35.1513H107.183C107.094 35.1513 107.037 35.0579 107.076 34.9782V34.9776Z" fill="url(#paint35_linear_61583_179770)"/>
<path d="M156.714 21.8292L154.405 43.8756C154.373 44.1804 154.115 44.4122 153.809 44.4122H146.55C146.194 44.4122 145.917 44.1044 145.954 43.751L148.263 21.7047C148.295 21.3998 148.553 21.168 148.859 21.168H156.119C156.474 21.168 156.751 21.4759 156.714 21.8292Z" fill="url(#paint36_linear_61583_179770)"/>
<path d="M143.588 38.4208L143.016 43.8762C142.984 44.1811 142.726 44.4128 142.42 44.4128H124.574C124.289 44.4128 124.068 44.1667 124.097 43.884L126.421 21.7053C126.452 21.4004 126.71 21.1686 127.017 21.1686H134.408C134.692 21.1686 134.914 21.4154 134.884 21.6981L133.209 37.4943C133.186 37.7063 133.352 37.8913 133.566 37.8913H143.112C143.396 37.8913 143.618 38.1375 143.588 38.4202L143.588 38.4208Z" fill="url(#paint37_linear_61583_179770)"/>
<path d="M94.8224 21.7669L94.4553 24.3788L91.7231 43.8133H84.9219L86.2449 34.3997C86.2736 34.1931 86.2125 33.9852 86.0772 33.8289C85.94 33.6708 85.7412 33.5804 85.5316 33.5804C85.3004 33.5804 85.0818 33.6936 84.9471 33.8834L79.3628 41.7435H75.6682L72.8515 34.0715C72.7467 33.7852 72.482 33.6007 72.1778 33.6007C71.8154 33.6007 71.516 33.8607 71.4651 34.2194L70.1163 43.8133H63.3151L66.4133 21.7669H72.9132L74.2859 24.7148L78.0458 32.7886C78.183 33.0833 78.4812 33.2731 78.8065 33.2731C79.0742 33.2731 79.3281 33.1438 79.485 32.9264L80.8643 31.0231L87.5727 21.7663H94.8218M94.9596 21.168H87.5733C87.381 21.168 87.2007 21.2603 87.0881 21.4154L80.3798 30.6721L79.0005 32.5754C78.952 32.6425 78.8795 32.6742 78.8071 32.6742C78.719 32.6742 78.6316 32.6269 78.5891 32.5359L74.8291 24.462L73.4564 21.5142C73.3582 21.3034 73.1462 21.168 72.9132 21.168H66.3091C66.0701 21.168 65.8677 21.3441 65.8347 21.5807L62.703 43.8666C62.6623 44.1547 62.8863 44.4122 63.1774 44.4122H70.1163C70.4152 44.4122 70.6679 44.1924 70.7098 43.8966L72.058 34.3027C72.0676 34.2356 72.1221 34.1997 72.1772 34.1997C72.2233 34.1997 72.2694 34.2248 72.2891 34.2781L75.1058 41.9501C75.1831 42.1597 75.3681 42.3059 75.5843 42.3364C75.6119 42.3406 75.64 42.3424 75.6682 42.3424H79.3628C79.5569 42.3424 79.739 42.2484 79.8516 42.0903L85.4358 34.2302C85.4609 34.1949 85.4963 34.1793 85.5316 34.1793C85.5981 34.1793 85.6633 34.235 85.652 34.3164L84.3098 43.8666C84.2715 44.1385 84.4691 44.3835 84.7362 44.4098C84.7524 44.4116 84.768 44.4122 84.7842 44.4122H91.7231C92.0219 44.4122 92.2747 44.1924 92.3166 43.8966L95.0482 24.462L95.4345 21.7142C95.4567 21.5531 95.3974 21.4022 95.2896 21.2998C95.2674 21.2782 95.2435 21.2597 95.2171 21.2429C95.1434 21.1956 95.0548 21.168 94.9596 21.168Z" fill="url(#paint38_linear_61583_179770)"/>
<path d="M182.919 21.7669L180.99 43.8133H174.77C174.731 43.8133 174.695 43.7941 174.672 43.7624L167.578 33.6307C167.421 33.4067 167.166 33.2731 166.894 33.2731C166.455 33.2731 166.095 33.6025 166.057 34.0385L165.201 43.8133H158.441L160.369 21.7669H166.879C166.918 21.7669 166.955 21.7867 166.978 21.8196L173.784 31.8328C173.94 32.0628 174.199 32.1999 174.475 32.1999C174.914 32.1999 175.274 31.8705 175.312 31.4339L176.157 21.7669H182.918M183.049 21.168H176.157C175.846 21.168 175.588 21.4052 175.561 21.7148L174.716 31.3818C174.704 31.5189 174.59 31.601 174.475 31.601C174.402 31.601 174.328 31.5681 174.279 31.4956L167.473 21.4825C167.339 21.2854 167.117 21.168 166.879 21.168H160.369C160.058 21.168 159.8 21.4052 159.773 21.7148L157.833 43.8912C157.808 44.1715 158.029 44.4122 158.31 44.4122H165.202C165.513 44.4122 165.771 44.1751 165.798 43.8654L166.654 34.0907C166.666 33.9535 166.779 33.8715 166.894 33.8715C166.966 33.8715 167.039 33.9032 167.088 33.9739L174.182 44.1056C174.317 44.2978 174.536 44.4122 174.771 44.4122H180.99C181.301 44.4122 181.56 44.1751 181.587 43.8654L183.527 21.6891C183.552 21.4088 183.331 21.168 183.05 21.168H183.049Z" fill="url(#paint39_linear_61583_179770)"/>
<path d="M203.704 21.7669L211.304 43.8133H203.431L202.68 40.8086C202.56 40.3277 202.13 39.9923 201.635 39.9923H193.888C193.432 39.9923 193.021 40.2462 192.817 40.6547L191.27 43.7474C191.25 43.7882 191.209 43.8139 191.163 43.8139H183.872L196.17 21.8286C196.19 21.7909 196.231 21.7675 196.274 21.7675H203.704M196.431 35.7496H200.495C200.718 35.7496 200.924 35.649 201.061 35.4735C201.199 35.298 201.246 35.0735 201.192 34.8567L199.837 29.4383C199.757 29.1179 199.47 28.8939 199.139 28.8939C198.866 28.8939 198.62 29.0461 198.497 29.291L195.789 34.7093C195.677 34.9339 195.688 35.195 195.82 35.4088C195.952 35.6221 196.18 35.7496 196.431 35.7496ZM203.704 21.168H196.274C196.013 21.168 195.774 21.3088 195.647 21.5358L183.15 43.8774C183.016 44.117 183.189 44.4122 183.464 44.4122H191.163C191.436 44.4122 191.684 44.2583 191.806 44.0151L193.352 40.9224C193.453 40.7194 193.661 40.5912 193.888 40.5912H201.634C201.854 40.5912 202.045 40.7409 202.099 40.9541L202.85 43.9589C202.916 44.2254 203.156 44.4122 203.431 44.4122H211.64C211.887 44.4122 212.06 44.1691 211.979 43.9355L204.27 21.5717C204.186 21.3303 203.959 21.168 203.704 21.168ZM196.431 35.1507C196.342 35.1507 196.284 35.0573 196.324 34.9776L199.033 29.5593C199.055 29.5144 199.098 29.4928 199.139 29.4928C199.19 29.4928 199.241 29.5246 199.256 29.5839L200.611 35.0022C200.63 35.0777 200.573 35.1513 200.495 35.1513H196.431V35.1507Z" fill="url(#paint40_linear_61583_179770)"/>
<path d="M114.456 21.7669L122.057 43.8133H114.183L113.432 40.8086C113.312 40.3277 112.882 39.9923 112.387 39.9923H104.64C104.184 39.9923 103.773 40.2462 103.569 40.6547L102.023 43.7474C102.002 43.7882 101.961 43.8139 101.915 43.8139H94.6242L106.956 21.7675H114.456M107.183 35.7496H111.247C111.47 35.7496 111.676 35.649 111.813 35.4735C111.951 35.298 111.999 35.0735 111.944 34.8567L110.589 29.4383C110.509 29.1179 110.222 28.8939 109.892 28.8939C109.618 28.8939 109.372 29.0461 109.25 29.291L106.541 34.7093C106.429 34.9339 106.44 35.195 106.572 35.4088C106.704 35.6221 106.932 35.7496 107.183 35.7496ZM114.456 21.168H106.955C106.738 21.168 106.538 21.2854 106.432 21.4747L93.9013 43.8774C93.7672 44.117 93.9403 44.4122 94.2152 44.4122H101.915C102.187 44.4122 102.436 44.2583 102.557 44.0151L104.104 40.9224C104.205 40.7194 104.413 40.5912 104.639 40.5912H112.385C112.605 40.5912 112.797 40.7409 112.85 40.9541L113.601 43.9589C113.668 44.2254 113.907 44.4122 114.182 44.4122H122.391C122.638 44.4122 122.812 44.1691 122.731 43.9355L115.021 21.5717C114.938 21.3303 114.71 21.168 114.455 21.168H114.456ZM107.183 35.1507C107.094 35.1507 107.037 35.0573 107.076 34.9776L109.785 29.5593C109.807 29.5144 109.85 29.4928 109.892 29.4928C109.942 29.4928 109.993 29.5246 110.008 29.5839L111.363 35.0022C111.382 35.0777 111.325 35.1513 111.247 35.1513H107.183V35.1507Z" fill="url(#paint41_linear_61583_179770)"/>
<path d="M156.119 21.7669L153.809 43.8133H146.55L148.86 21.7669H156.119ZM156.119 21.168H148.86C148.553 21.168 148.296 21.3998 148.264 21.7047L145.955 43.751C145.917 44.1044 146.195 44.4122 146.55 44.4122H153.809C154.116 44.4122 154.373 44.1804 154.405 43.8756L156.715 21.8292C156.752 21.4759 156.475 21.168 156.119 21.168Z" fill="url(#paint42_linear_61583_179770)"/>
<path d="M134.275 21.7669L132.613 37.4308C132.585 37.7003 132.673 37.971 132.854 38.1728C133.036 38.3746 133.295 38.4902 133.567 38.4902H142.979L142.422 43.8133H124.708L127.018 21.7669H134.276M134.408 21.168H127.017C126.71 21.168 126.453 21.3998 126.421 21.7047L124.097 43.8834C124.068 44.1661 124.289 44.4122 124.574 44.4122H142.42C142.726 44.4122 142.983 44.1804 143.016 43.8756L143.588 38.4202C143.618 38.1375 143.395 37.8913 143.111 37.8913H133.566C133.352 37.8913 133.186 37.7063 133.208 37.4942L134.884 21.6981C134.914 21.4148 134.692 21.1686 134.407 21.1686L134.408 21.168Z" fill="url(#paint43_linear_61583_179770)"/>
<path d="M94.7536 21.8268L91.6716 43.7534H84.9914L86.3048 34.4081C86.3359 34.1841 86.27 33.9589 86.1227 33.7894C85.9742 33.6187 85.7586 33.5205 85.5322 33.5205C85.2776 33.5205 85.0471 33.6403 84.8991 33.8487L79.3329 41.6836H75.7101L72.9078 34.0511C72.794 33.7409 72.5077 33.5409 72.1777 33.5409C71.7849 33.5409 71.4609 33.823 71.4064 34.211L70.0654 43.7534H63.3852L66.4666 21.8268H72.8767L77.9931 32.8138C78.1423 33.1342 78.4543 33.333 78.8082 33.333C79.0993 33.333 79.3646 33.1977 79.5353 32.9617L87.605 21.8262H94.7548M94.9596 21.4675H87.5733C87.4774 21.4675 87.387 21.5136 87.3307 21.5909L79.2431 32.7509C79.1406 32.8923 78.9813 32.9737 78.807 32.9737C78.595 32.9737 78.4076 32.8545 78.3177 32.6623L73.1851 21.6406C73.136 21.5352 73.0294 21.4675 72.9132 21.4675H66.3091C66.2198 21.4675 66.1438 21.534 66.1312 21.6226L62.9995 43.9086C62.9893 43.9786 63.0217 44.0277 63.0414 44.0511C63.0612 44.0745 63.1061 44.1128 63.1768 44.1128H70.1157C70.2642 44.1128 70.3918 44.002 70.4128 43.8547L71.7609 34.2608C71.7903 34.0517 71.9651 33.8996 72.1765 33.8996C72.3538 33.8996 72.5083 34.0074 72.5694 34.1745L75.3861 41.8465C75.4244 41.9501 75.5161 42.0244 75.6287 42.0406C75.64 42.0424 75.6532 42.043 75.6676 42.043H79.3622C79.4593 42.043 79.5509 41.9956 79.6066 41.9166L85.1908 34.0565C85.2705 33.9439 85.3944 33.8798 85.531 33.8798C85.6538 33.8798 85.7699 33.9326 85.8502 34.0254C85.9293 34.1158 85.9646 34.2374 85.9478 34.3578L84.6057 43.908C84.5967 43.9738 84.6248 44.0211 84.6422 44.0433C84.6728 44.0822 84.7165 44.1062 84.7686 44.1116C84.7734 44.1116 84.7788 44.1116 84.7835 44.1116H91.7225C91.871 44.1116 91.9986 44.0008 92.0195 43.8535L95.1375 21.6717C95.1452 21.613 95.1255 21.5555 95.0806 21.513C95.074 21.5064 95.0656 21.5004 95.0548 21.4932C95.0267 21.4753 94.9937 21.4657 94.959 21.4657L94.9596 21.4675Z" fill="url(#paint44_linear_61583_179770)"/>
<path d="M182.853 21.8269L180.935 43.7535H174.77C174.75 43.7535 174.732 43.7439 174.721 43.7277L167.627 33.596C167.457 33.3522 167.189 33.2127 166.894 33.2127C166.424 33.2127 166.038 33.5654 165.997 34.0332L165.146 43.7535H158.506L160.424 21.8269H166.879C166.899 21.8269 166.917 21.8364 166.929 21.8532L173.735 31.8663C173.905 32.1167 174.175 32.2598 174.475 32.2598C174.946 32.2598 175.332 31.9071 175.373 31.4393L176.213 21.8269H182.854M183.049 21.4675H176.157C176.001 21.4675 175.873 21.5849 175.859 21.7406L175.014 31.4076C174.989 31.6885 174.757 31.8999 174.475 31.8999C174.295 31.8999 174.133 31.8136 174.031 31.6633L167.225 21.6502C167.147 21.5352 167.017 21.4669 166.878 21.4669H160.369C160.212 21.4669 160.084 21.5843 160.07 21.74L158.131 43.9164C158.125 43.9846 158.157 44.0314 158.177 44.0535C158.197 44.0751 158.241 44.1116 158.31 44.1116H165.201C165.358 44.1116 165.486 43.9942 165.5 43.8385L166.355 34.0637C166.379 33.7828 166.611 33.5714 166.894 33.5714C167.07 33.5714 167.231 33.6553 167.333 33.8014L174.427 43.9331C174.505 44.0451 174.633 44.1116 174.77 44.1116H180.99C181.146 44.1116 181.274 43.9942 181.288 43.8385L183.228 21.6622C183.234 21.5939 183.202 21.5472 183.182 21.525C183.162 21.5035 183.118 21.4669 183.049 21.4669V21.4675Z" fill="url(#paint45_linear_61583_179770)"/>
<path d="M203.661 21.8268L211.221 43.7534H203.479L202.739 40.7942C202.612 40.2869 202.158 39.9324 201.635 39.9324H193.889C193.41 39.9324 192.979 40.1989 192.764 40.6277L191.218 43.7205C191.207 43.742 191.188 43.7534 191.164 43.7534H183.975L196.222 21.8574C196.233 21.8382 196.253 21.8268 196.274 21.8268H203.662M196.431 35.8095H200.495C200.736 35.8095 200.96 35.7005 201.109 35.5101C201.257 35.3196 201.309 35.0764 201.251 34.8423L199.896 29.424C199.809 29.0766 199.498 28.834 199.14 28.834C198.844 28.834 198.577 28.9987 198.444 29.2646L195.735 34.683C195.614 34.9261 195.626 35.2094 195.77 35.4406C195.913 35.6718 196.16 35.8101 196.432 35.8101M203.704 21.4675H196.274C196.122 21.4675 195.982 21.5495 195.908 21.6819L183.411 44.0235C183.4 44.0433 183.4 44.0636 183.412 44.0828C183.423 44.1026 183.44 44.1122 183.463 44.1122H191.163C191.323 44.1122 191.466 44.0235 191.538 43.8804L193.084 40.7876C193.237 40.4816 193.545 40.2911 193.888 40.2911H201.634C201.992 40.2911 202.302 40.5337 202.389 40.8811L203.14 43.8858C203.174 44.0193 203.293 44.1128 203.431 44.1128H211.64C211.666 44.1128 211.681 44.099 211.688 44.0876C211.697 44.0762 211.705 44.0577 211.696 44.0331L203.987 21.6693C203.945 21.5483 203.831 21.4675 203.703 21.4675H203.704ZM196.431 35.4502C196.285 35.4502 196.152 35.3759 196.074 35.2513C195.998 35.1267 195.991 34.9746 196.056 34.8435L198.765 29.4252C198.836 29.282 198.98 29.1934 199.139 29.1934C199.332 29.1934 199.5 29.3239 199.546 29.5108L200.901 34.9291C200.933 35.0555 200.905 35.186 200.825 35.2891C200.745 35.3921 200.624 35.4502 200.494 35.4502H196.431H196.431Z" fill="url(#paint46_linear_61583_179770)"/>
<path d="M114.413 21.8268L121.973 43.7534H114.231L113.491 40.7942C113.364 40.2869 112.91 39.9324 112.387 39.9324H104.641C104.162 39.9324 103.731 40.1989 103.516 40.6277L101.97 43.7205C101.959 43.742 101.94 43.7534 101.916 43.7534H94.7272L106.992 21.8268H114.414M107.183 35.8095H111.247C111.488 35.8095 111.712 35.7005 111.861 35.5101C112.009 35.3196 112.061 35.0764 112.003 34.8423L110.648 29.424C110.561 29.0766 110.25 28.8346 109.892 28.8346C109.596 28.8346 109.329 28.9993 109.196 29.2652L106.487 34.6836C106.366 34.9267 106.378 35.21 106.521 35.4412C106.665 35.6724 106.912 35.8107 107.184 35.8107M114.456 21.4675H106.955C106.847 21.4675 106.747 21.5262 106.694 21.6208L94.163 44.0235C94.1516 44.0433 94.1522 44.0636 94.1636 44.0828C94.175 44.1026 94.1924 44.1122 94.2151 44.1122H101.915C102.075 44.1122 102.218 44.0235 102.29 43.8804L103.836 40.7876C103.989 40.4816 104.297 40.2911 104.64 40.2911H112.386C112.744 40.2911 113.054 40.5337 113.141 40.8811L113.892 43.8858C113.926 44.0193 114.045 44.1128 114.183 44.1128H122.392C122.418 44.1128 122.433 44.099 122.44 44.0876C122.449 44.0762 122.457 44.0577 122.448 44.0331L114.738 21.6693C114.697 21.5483 114.583 21.4675 114.455 21.4675H114.456ZM107.183 35.4502C107.037 35.4502 106.904 35.3759 106.826 35.2513C106.75 35.1267 106.742 34.9746 106.808 34.8435L109.517 29.4252C109.588 29.282 109.732 29.1934 109.891 29.1934C110.084 29.1934 110.251 29.3239 110.298 29.5108L111.653 34.9291C111.685 35.0555 111.657 35.186 111.577 35.2891C111.497 35.3921 111.376 35.4502 111.246 35.4502H107.183H107.183Z" fill="url(#paint47_linear_61583_179770)"/>
<path d="M156.053 21.8268L153.755 43.7534H146.617L148.914 21.8268H156.053M156.119 21.4675H148.86C148.706 21.4675 148.578 21.5831 148.562 21.7358L146.252 43.7822C146.243 43.8678 146.27 43.9499 146.328 44.0139C146.385 44.078 146.464 44.1128 146.55 44.1128H153.809C153.963 44.1128 154.091 43.9972 154.107 43.8444L156.417 21.7981C156.426 21.7124 156.399 21.6304 156.341 21.5663C156.284 21.5022 156.205 21.4675 156.119 21.4675H156.119Z" fill="url(#paint48_linear_61583_179770)"/>
<path d="M134.208 21.8268L132.553 37.4248C132.522 37.7116 132.616 37.9985 132.809 38.2129C133.001 38.4273 133.277 38.5501 133.566 38.5501H142.911L142.366 43.7534H124.774L127.07 21.8268H134.208ZM134.408 21.4675H127.016C126.863 21.4675 126.734 21.5831 126.719 21.7358L124.395 43.9145C124.388 43.984 124.42 44.0313 124.44 44.0535C124.46 44.0756 124.504 44.1128 124.574 44.1128H142.42C142.574 44.1128 142.702 43.9972 142.717 43.8444L143.289 38.389C143.297 38.3195 143.264 38.2722 143.244 38.2501C143.225 38.2279 143.18 38.1908 143.111 38.1908H133.566C133.379 38.1908 133.2 38.1111 133.076 37.9728C132.951 37.8338 132.891 37.6481 132.91 37.4625L134.586 21.6663C134.593 21.5968 134.561 21.5495 134.541 21.5274C134.521 21.5052 134.477 21.4681 134.408 21.4681V21.4675Z" fill="url(#paint49_linear_61583_179770)"/>
<path d="M111.247 35.1513H107.183C107.094 35.1513 107.036 35.0573 107.076 34.9777L109.785 29.5593C109.835 29.4599 109.982 29.4761 110.008 29.5839L111.363 35.0022C111.382 35.0777 111.325 35.1513 111.247 35.1513Z" fill="url(#paint50_linear_61583_179770)"/>
</g>
<defs>
<linearGradient id="paint0_linear_61583_179770" x1="21.8299" y1="49.1714" x2="47.0218" y2="61.5928" gradientUnits="userSpaceOnUse">
<stop stop-color="#B717B0"/>
<stop offset="0.53" stop-color="#E718A7"/>
<stop offset="1" stop-color="#F54089"/>
</linearGradient>
<linearGradient id="paint1_linear_61583_179770" x1="10.6903" y1="33.6831" x2="17.4844" y2="46.7336" gradientUnits="userSpaceOnUse">
<stop stop-color="#EF83EF"/>
<stop offset="1" stop-color="#F7D1F6"/>
</linearGradient>
<linearGradient id="paint2_linear_61583_179770" x1="23.6892" y1="40.397" x2="20.1005" y2="30.3956" gradientUnits="userSpaceOnUse">
<stop stop-color="#FBE5FB"/>
<stop offset="1" stop-color="#F4A3FF"/>
</linearGradient>
<linearGradient id="paint3_linear_61583_179770" x1="51.0155" y1="64.0101" x2="34.1734" y2="37.553" gradientUnits="userSpaceOnUse">
<stop stop-color="#FBE2E5"/>
<stop offset="0.1" stop-color="#FB9EAA"/>
<stop offset="0.35" stop-color="#E96288"/>
<stop offset="0.6" stop-color="#CF357E"/>
<stop offset="1" stop-color="#992A7F"/>
</linearGradient>
<linearGradient id="paint4_linear_61583_179770" x1="49.9256" y1="31.2889" x2="50.5171" y2="59.3704" gradientUnits="userSpaceOnUse">
<stop stop-color="#E55BEF"/>
<stop offset="0.71" stop-color="#F45296"/>
</linearGradient>
<linearGradient id="paint5_linear_61583_179770" x1="43.7169" y1="18.2477" x2="50.0119" y2="26.9288" gradientUnits="userSpaceOnUse">
<stop stop-color="#E9A1FF"/>
<stop offset="1" stop-color="#F7D1F6"/>
</linearGradient>
<linearGradient id="paint6_linear_61583_179770" x1="26.4773" y1="25.171" x2="33.3973" y2="36.3048" gradientUnits="userSpaceOnUse">
<stop stop-color="#BD6FE7"/>
<stop offset="0.7" stop-color="#D567D5"/>
<stop offset="1" stop-color="#EB89EB"/>
</linearGradient>
<linearGradient id="paint7_linear_61583_179770" x1="41.189" y1="29.2595" x2="33.647" y2="21.7747" gradientUnits="userSpaceOnUse">
<stop stop-color="#F9BCFF"/>
<stop offset="1" stop-color="#F19BFF"/>
</linearGradient>
<linearGradient id="paint8_linear_61583_179770" x1="42.5641" y1="48.0961" x2="51.0817" y2="48.0961" gradientUnits="userSpaceOnUse">
<stop stop-color="white"/>
<stop offset="0.08" stop-color="white" stop-opacity="0.96"/>
<stop offset="0.22" stop-color="white" stop-opacity="0.87"/>
<stop offset="0.4" stop-color="white" stop-opacity="0.71"/>
<stop offset="0.6" stop-color="white" stop-opacity="0.5"/>
<stop offset="0.83" stop-color="white" stop-opacity="0.22"/>
<stop offset="1" stop-color="white" stop-opacity="0"/>
</linearGradient>
<linearGradient id="paint9_linear_61583_179770" x1="34.4721" y1="31.8789" x2="34.7338" y2="25.9257" gradientUnits="userSpaceOnUse">
<stop offset="0.35" stop-color="white" stop-opacity="0"/>
<stop offset="1" stop-color="white"/>
</linearGradient>
<linearGradient id="paint10_linear_61583_179770" x1="50.8941" y1="64.1636" x2="25.8687" y2="42.7772" gradientUnits="userSpaceOnUse">
<stop offset="0.5" stop-color="white" stop-opacity="0"/>
<stop offset="1" stop-color="white"/>
</linearGradient>
<linearGradient id="paint11_linear_61583_179770" x1="23.3433" y1="44.2097" x2="23.3466" y2="44.1401" gradientUnits="userSpaceOnUse">
<stop offset="0.35" stop-color="white" stop-opacity="0"/>
<stop offset="1" stop-color="white"/>
</linearGradient>
<linearGradient id="paint12_linear_61583_179770" x1="2.54117" y1="29.7946" x2="23.6167" y2="29.8811" gradientUnits="userSpaceOnUse">
<stop stop-color="#6AD728"/>
<stop offset="0.5" stop-color="#5B9D43"/>
<stop offset="1" stop-color="#26494B"/>
</linearGradient>
<linearGradient id="paint13_linear_61583_179770" x1="2.66499" y1="26.4024" x2="25.6536" y2="23.2598" gradientUnits="userSpaceOnUse">
<stop stop-color="#BAFA47"/>
<stop offset="0.26" stop-color="#DBFF38"/>
<stop offset="1" stop-color="#24F32B"/>
</linearGradient>
<linearGradient id="paint14_linear_61583_179770" x1="12.2165" y1="18.8469" x2="25.807" y2="26.1717" gradientUnits="userSpaceOnUse">
<stop stop-color="#81D935"/>
<stop offset="0.26" stop-color="#6BB63C"/>
<stop offset="1" stop-color="#26494B"/>
</linearGradient>
<linearGradient id="paint15_linear_61583_179770" x1="12.1657" y1="20.324" x2="28.1046" y2="19.148" gradientUnits="userSpaceOnUse">
<stop stop-color="#82F128"/>
<stop offset="0.48" stop-color="#42BF34"/>
<stop offset="1" stop-color="#11844F"/>
</linearGradient>
<linearGradient id="paint16_linear_61583_179770" x1="22.8001" y1="7.94126" x2="23.7164" y2="24.6789" gradientUnits="userSpaceOnUse">
<stop stop-color="#EBF96E"/>
<stop offset="0.51" stop-color="#B4E95C"/>
<stop offset="1" stop-color="#1D9842"/>
</linearGradient>
<linearGradient id="paint17_linear_61583_179770" x1="28.0957" y1="22.662" x2="27.6969" y2="5.05327" gradientUnits="userSpaceOnUse">
<stop offset="0.09" stop-color="#31804F"/>
<stop offset="0.68" stop-color="#B8F543"/>
<stop offset="1" stop-color="#CFF831"/>
</linearGradient>
<linearGradient id="paint18_linear_61583_179770" x1="24.3289" y1="21.5231" x2="41.8525" y2="5.89309" gradientUnits="userSpaceOnUse">
<stop stop-color="#1BAA50"/>
<stop offset="0.51" stop-color="#C9FD3E"/>
<stop offset="1" stop-color="#9AED3E"/>
</linearGradient>
<linearGradient id="paint19_linear_61583_179770" x1="25.9944" y1="23.0677" x2="42.6882" y2="6.55456" gradientUnits="userSpaceOnUse">
<stop stop-color="#278157"/>
<stop offset="0.5" stop-color="#72CF4B"/>
<stop offset="1" stop-color="#74E13B"/>
</linearGradient>
<linearGradient id="paint20_linear_61583_179770" x1="92.2801" y1="52.2112" x2="92.2801" y2="64.2295" gradientUnits="userSpaceOnUse">
<stop stop-color="#C9FD3E"/>
<stop offset="1" stop-color="#1BAA50"/>
</linearGradient>
<linearGradient id="paint21_linear_61583_179770" x1="181.04" y1="47.7062" x2="181.04" y2="21.2555" gradientUnits="userSpaceOnUse">
<stop stop-color="#550F5F"/>
<stop offset="0.1" stop-color="#370D4A"/>
<stop offset="0.22" stop-color="#3B0D4C"/>
<stop offset="0.34" stop-color="#480D54"/>
<stop offset="0.47" stop-color="#5D0E60"/>
<stop offset="0.6" stop-color="#7B0F72"/>
<stop offset="0.68" stop-color="#91107F"/>
<stop offset="1" stop-color="#7937CC"/>
</linearGradient>
<linearGradient id="paint22_linear_61583_179770" x1="99.139" y1="47.7062" x2="99.139" y2="21.301" gradientUnits="userSpaceOnUse">
<stop stop-color="#550F5F"/>
<stop offset="0.1" stop-color="#370D4A"/>
<stop offset="0.22" stop-color="#3B0D4C"/>
<stop offset="0.34" stop-color="#480D54"/>
<stop offset="0.47" stop-color="#5D0E60"/>
<stop offset="0.6" stop-color="#7B0F72"/>
<stop offset="0.68" stop-color="#91107F"/>
<stop offset="1" stop-color="#7937CC"/>
</linearGradient>
<linearGradient id="paint23_linear_61583_179770" x1="69.2666" y1="33.8295" x2="69.2666" y2="47.7062" gradientUnits="userSpaceOnUse">
<stop stop-color="#321048"/>
<stop offset="0.56" stop-color="#330F49"/>
<stop offset="0.76" stop-color="#3A0F4D"/>
<stop offset="0.9" stop-color="#460F55"/>
<stop offset="1" stop-color="#550F5F"/>
</linearGradient>
<linearGradient id="paint24_linear_61583_179770" x1="78.4766" y1="23.369" x2="75.3203" y2="31.3063" gradientUnits="userSpaceOnUse">
<stop stop-color="#7937CC"/>
<stop offset="0.65" stop-color="#91107F"/>
<stop offset="1" stop-color="#6F0659"/>
</linearGradient>
<linearGradient id="paint25_linear_61583_179770" x1="172.108" y1="23.6206" x2="180.456" y2="31.9694" gradientUnits="userSpaceOnUse">
<stop stop-color="#7937CC"/>
<stop offset="0.32" stop-color="#91107F"/>
<stop offset="0.41" stop-color="#7B0F72"/>
<stop offset="0.56" stop-color="#5D0E60"/>
<stop offset="0.72" stop-color="#480D54"/>
<stop offset="0.86" stop-color="#3B0D4C"/>
<stop offset="1" stop-color="#370D4A"/>
</linearGradient>
<linearGradient id="paint26_linear_61583_179770" x1="80.6457" y1="2" x2="80.6457" y2="45.6364" gradientUnits="userSpaceOnUse">
<stop stop-color="#321048"/>
<stop offset="0.56" stop-color="#330F49"/>
<stop offset="0.76" stop-color="#3A0F4D"/>
<stop offset="0.9" stop-color="#460F55"/>
<stop offset="1" stop-color="#550F5F"/>
</linearGradient>
<linearGradient id="paint27_linear_61583_179770" x1="160.364" y1="21.4148" x2="160.364" y2="47.7062" gradientUnits="userSpaceOnUse">
<stop stop-color="#7937CC"/>
<stop offset="0.32" stop-color="#91107F"/>
<stop offset="0.4" stop-color="#7B0F72"/>
<stop offset="0.53" stop-color="#5D0E60"/>
<stop offset="0.66" stop-color="#480D54"/>
<stop offset="0.78" stop-color="#3B0D4C"/>
<stop offset="0.9" stop-color="#370D4A"/>
<stop offset="1" stop-color="#550F5F"/>
</linearGradient>
<linearGradient id="paint28_linear_61583_179770" x1="201.832" y1="40.5912" x2="201.832" y2="2" gradientUnits="userSpaceOnUse">
<stop stop-color="#321048"/>
<stop offset="0.56" stop-color="#330F49"/>
<stop offset="0.76" stop-color="#3A0F4D"/>
<stop offset="0.9" stop-color="#460F55"/>
<stop offset="1" stop-color="#550F5F"/>
</linearGradient>
<linearGradient id="paint29_linear_61583_179770" x1="139.256" y1="25.1352" x2="126.651" y2="39.2616" gradientUnits="userSpaceOnUse">
<stop stop-color="#7937CC"/>
<stop offset="0.32" stop-color="#91107F"/>
<stop offset="0.41" stop-color="#7B0F72"/>
<stop offset="0.56" stop-color="#5D0E60"/>
<stop offset="0.72" stop-color="#480D54"/>
<stop offset="0.86" stop-color="#3B0D4C"/>
<stop offset="1" stop-color="#370D4A"/>
</linearGradient>
<linearGradient id="paint30_linear_61583_179770" x1="134.05" y1="47.7062" x2="134.05" y2="21.3435" gradientUnits="userSpaceOnUse">
<stop stop-color="#550F5F"/>
<stop offset="0.06" stop-color="#370D4A"/>
<stop offset="0.19" stop-color="#3B0D4C"/>
<stop offset="0.32" stop-color="#480D54"/>
<stop offset="0.46" stop-color="#5D0E60"/>
<stop offset="0.6" stop-color="#7B0F72"/>
<stop offset="0.68" stop-color="#91107F"/>
<stop offset="1" stop-color="#7937CC"/>
</linearGradient>
<linearGradient id="paint31_linear_61583_179770" x1="197.711" y1="32.291" x2="200.983" y2="33.6475" gradientUnits="userSpaceOnUse">
<stop stop-color="#5F0E60"/>
<stop offset="1" stop-color="#A039A6"/>
</linearGradient>
<linearGradient id="paint32_linear_61583_179770" x1="79.0688" y1="44.4122" x2="79.0688" y2="21.168" gradientUnits="userSpaceOnUse">
<stop stop-color="#D177C4"/>
<stop offset="0.02" stop-color="#D36EC1"/>
<stop offset="0.11" stop-color="#DB54B8"/>
<stop offset="0.2" stop-color="#E141B2"/>
<stop offset="0.3" stop-color="#E435AE"/>
<stop offset="0.4" stop-color="#E632AD"/>
<stop offset="0.42" stop-color="#E739B1"/>
<stop offset="0.62" stop-color="#F170D2"/>
<stop offset="0.78" stop-color="#F897EA"/>
<stop offset="0.92" stop-color="#FDB0F9"/>
<stop offset="1" stop-color="#FFB9FF"/>
</linearGradient>
<linearGradient id="paint33_linear_61583_179770" x1="170.679" y1="44.4122" x2="170.679" y2="21.168" gradientUnits="userSpaceOnUse">
<stop stop-color="#D177C4"/>
<stop offset="0.02" stop-color="#D36EC1"/>
<stop offset="0.11" stop-color="#DB54B8"/>
<stop offset="0.2" stop-color="#E141B2"/>
<stop offset="0.3" stop-color="#E435AE"/>
<stop offset="0.4" stop-color="#E632AD"/>
<stop offset="0.42" stop-color="#E739B1"/>
<stop offset="0.62" stop-color="#F170D2"/>
<stop offset="0.78" stop-color="#F897EA"/>
<stop offset="0.92" stop-color="#FDB0F9"/>
<stop offset="1" stop-color="#FFB9FF"/>
</linearGradient>
<linearGradient id="paint34_linear_61583_179770" x1="197.552" y1="44.4122" x2="197.552" y2="21.168" gradientUnits="userSpaceOnUse">
<stop stop-color="#D177C4"/>
<stop offset="0.02" stop-color="#D36EC1"/>
<stop offset="0.11" stop-color="#DB54B8"/>
<stop offset="0.2" stop-color="#E141B2"/>
<stop offset="0.3" stop-color="#E435AE"/>
<stop offset="0.4" stop-color="#E632AD"/>
<stop offset="0.42" stop-color="#E739B1"/>
<stop offset="0.62" stop-color="#F170D2"/>
<stop offset="0.78" stop-color="#F897EA"/>
<stop offset="0.92" stop-color="#FDB0F9"/>
<stop offset="1" stop-color="#FFB9FF"/>
</linearGradient>
<linearGradient id="paint35_linear_61583_179770" x1="108.304" y1="44.4122" x2="108.304" y2="21.168" gradientUnits="userSpaceOnUse">
<stop stop-color="#D177C4"/>
<stop offset="0.02" stop-color="#D36EC1"/>
<stop offset="0.11" stop-color="#DB54B8"/>
<stop offset="0.2" stop-color="#E141B2"/>
<stop offset="0.3" stop-color="#E435AE"/>
<stop offset="0.4" stop-color="#E632AD"/>
<stop offset="0.42" stop-color="#E739B1"/>
<stop offset="0.62" stop-color="#F170D2"/>
<stop offset="0.78" stop-color="#F897EA"/>
<stop offset="0.92" stop-color="#FDB0F9"/>
<stop offset="1" stop-color="#FFB9FF"/>
</linearGradient>
<linearGradient id="paint36_linear_61583_179770" x1="151.335" y1="44.4122" x2="151.335" y2="21.168" gradientUnits="userSpaceOnUse">
<stop stop-color="#D177C4"/>
<stop offset="0.02" stop-color="#D36EC1"/>
<stop offset="0.11" stop-color="#DB54B8"/>
<stop offset="0.2" stop-color="#E141B2"/>
<stop offset="0.3" stop-color="#E435AE"/>
<stop offset="0.4" stop-color="#E632AD"/>
<stop offset="0.42" stop-color="#E739B1"/>
<stop offset="0.62" stop-color="#F170D2"/>
<stop offset="0.78" stop-color="#F897EA"/>
<stop offset="0.92" stop-color="#FDB0F9"/>
<stop offset="1" stop-color="#FFB9FF"/>
</linearGradient>
<linearGradient id="paint37_linear_61583_179770" x1="133.842" y1="44.4122" x2="133.842" y2="21.168" gradientUnits="userSpaceOnUse">
<stop stop-color="#D177C4"/>
<stop offset="0.02" stop-color="#D36EC1"/>
<stop offset="0.11" stop-color="#DB54B8"/>
<stop offset="0.2" stop-color="#E141B2"/>
<stop offset="0.3" stop-color="#E435AE"/>
<stop offset="0.4" stop-color="#E632AD"/>
<stop offset="0.42" stop-color="#E739B1"/>
<stop offset="0.62" stop-color="#F170D2"/>
<stop offset="0.78" stop-color="#F897EA"/>
<stop offset="0.92" stop-color="#FDB0F9"/>
<stop offset="1" stop-color="#FFB9FF"/>
</linearGradient>
<linearGradient id="paint38_linear_61583_179770" x1="79.0688" y1="44.4122" x2="79.0688" y2="21.168" gradientUnits="userSpaceOnUse">
<stop stop-color="#DB399F"/>
<stop offset="0.27" stop-color="#DB3CA2"/>
<stop offset="0.48" stop-color="#DC45AC"/>
<stop offset="0.67" stop-color="#DD56BD"/>
<stop offset="0.86" stop-color="#DF6DD4"/>
<stop offset="1" stop-color="#E285ED"/>
</linearGradient>
<linearGradient id="paint39_linear_61583_179770" x1="170.679" y1="44.4122" x2="170.679" y2="21.168" gradientUnits="userSpaceOnUse">
<stop stop-color="#DB399F"/>
<stop offset="0.27" stop-color="#DB3CA2"/>
<stop offset="0.48" stop-color="#DC45AC"/>
<stop offset="0.67" stop-color="#DD56BD"/>
<stop offset="0.86" stop-color="#DF6DD4"/>
<stop offset="1" stop-color="#E285ED"/>
</linearGradient>
<linearGradient id="paint40_linear_61583_179770" x1="197.552" y1="44.4122" x2="197.552" y2="21.168" gradientUnits="userSpaceOnUse">
<stop stop-color="#DB399F"/>
<stop offset="0.27" stop-color="#DB3CA2"/>
<stop offset="0.48" stop-color="#DC45AC"/>
<stop offset="0.67" stop-color="#DD56BD"/>
<stop offset="0.86" stop-color="#DF6DD4"/>
<stop offset="1" stop-color="#E285ED"/>
</linearGradient>
<linearGradient id="paint41_linear_61583_179770" x1="108.304" y1="44.4122" x2="108.304" y2="21.168" gradientUnits="userSpaceOnUse">
<stop stop-color="#DB399F"/>
<stop offset="0.27" stop-color="#DB3CA2"/>
<stop offset="0.48" stop-color="#DC45AC"/>
<stop offset="0.67" stop-color="#DD56BD"/>
<stop offset="0.86" stop-color="#DF6DD4"/>
<stop offset="1" stop-color="#E285ED"/>
</linearGradient>
<linearGradient id="paint42_linear_61583_179770" x1="151.334" y1="44.4122" x2="151.334" y2="21.168" gradientUnits="userSpaceOnUse">
<stop stop-color="#DB399F"/>
<stop offset="0.27" stop-color="#DB3CA2"/>
<stop offset="0.48" stop-color="#DC45AC"/>
<stop offset="0.67" stop-color="#DD56BD"/>
<stop offset="0.86" stop-color="#DF6DD4"/>
<stop offset="1" stop-color="#E285ED"/>
</linearGradient>
<linearGradient id="paint43_linear_61583_179770" x1="133.842" y1="44.4122" x2="133.842" y2="21.168" gradientUnits="userSpaceOnUse">
<stop stop-color="#DB399F"/>
<stop offset="0.27" stop-color="#DB3CA2"/>
<stop offset="0.48" stop-color="#DC45AC"/>
<stop offset="0.67" stop-color="#DD56BD"/>
<stop offset="0.86" stop-color="#DF6DD4"/>
<stop offset="1" stop-color="#E285ED"/>
</linearGradient>
<linearGradient id="paint44_linear_61583_179770" x1="79.0688" y1="44.1128" x2="79.0688" y2="21.4675" gradientUnits="userSpaceOnUse">
<stop stop-color="#E99DED"/>
<stop offset="0.5" stop-color="#F184E3"/>
<stop offset="1" stop-color="white"/>
</linearGradient>
<linearGradient id="paint45_linear_61583_179770" x1="170.679" y1="44.1128" x2="170.679" y2="21.4675" gradientUnits="userSpaceOnUse">
<stop stop-color="#E99DED"/>
<stop offset="0.5" stop-color="#F184E3"/>
<stop offset="1" stop-color="white"/>
</linearGradient>
<linearGradient id="paint46_linear_61583_179770" x1="197.551" y1="44.1128" x2="197.551" y2="21.4675" gradientUnits="userSpaceOnUse">
<stop stop-color="#E99DED"/>
<stop offset="0.5" stop-color="#F184E3"/>
<stop offset="1" stop-color="white"/>
</linearGradient>
<linearGradient id="paint47_linear_61583_179770" x1="108.304" y1="44.1128" x2="108.304" y2="21.4675" gradientUnits="userSpaceOnUse">
<stop stop-color="#E99DED"/>
<stop offset="0.5" stop-color="#F184E3"/>
<stop offset="1" stop-color="white"/>
</linearGradient>
<linearGradient id="paint48_linear_61583_179770" x1="151.335" y1="44.1128" x2="151.335" y2="21.4675" gradientUnits="userSpaceOnUse">
<stop stop-color="#E99DED"/>
<stop offset="0.5" stop-color="#F184E3"/>
<stop offset="1" stop-color="white"/>
</linearGradient>
<linearGradient id="paint49_linear_61583_179770" x1="133.842" y1="44.1128" x2="133.842" y2="21.4675" gradientUnits="userSpaceOnUse">
<stop stop-color="#E99DED"/>
<stop offset="0.5" stop-color="#F184E3"/>
<stop offset="1" stop-color="white"/>
</linearGradient>
<linearGradient id="paint50_linear_61583_179770" x1="107.301" y1="33.0869" x2="110.604" y2="32.3137" gradientUnits="userSpaceOnUse">
<stop stop-color="#A039A6"/>
<stop offset="1" stop-color="#5F0E60"/>
</linearGradient>
<clipPath id="clip0_61583_179770">
<rect width="212" height="62.2289" fill="white" transform="translate(0 2)"/>
</clipPath>
</defs>
</svg>
