<svg width="143" height="64" viewBox="0 0 143 64" fill="none" xmlns="http://www.w3.org/2000/svg">
<g clip-path="url(#clip0_2015_166602)">
<path fill-rule="evenodd" clip-rule="evenodd" d="M28.9247 33.6153V52.4897H38.1688V33.6153C38.2444 32.3943 39.2519 31.4277 40.4609 31.4277C40.8891 31.4277 41.267 31.5549 41.6196 31.7329L48.496 25.3482C46.4306 23.3132 43.5843 22.0668 40.4861 22.0668C34.1639 22.0413 29.0254 27.2051 28.9247 33.6153ZM35.3981 8H0.335938V17.3609H13.3331V56L22.5772 52.4897V17.3609H35.4233V8H35.3981ZM48.5716 52.4897H57.8157V22.0413H48.5716V52.4897ZM142.977 22.0413H116.681V30.2321H130.031L116.681 45.7488V50.6328L104.943 36.1844L116.454 22.0413H106.102L97.6384 32.4706V8L88.3943 11.5103V52.4897H97.6384V42.0604L106.102 52.4897H118.192H143.003V44.2989H129.124L143.003 28.7822V22.0413H142.977ZM73.105 43.1288C69.9061 43.1288 67.3369 40.5087 67.3369 37.2782C67.3369 34.0477 69.9313 31.4277 73.105 31.4277C74.6919 31.4277 76.1528 32.089 77.1855 33.132L83.7093 26.5183C80.989 23.7711 77.2359 22.0668 73.105 22.0668C64.818 22.0668 58.0928 28.8839 58.0928 37.2782C58.0928 45.6979 64.818 52.4897 73.105 52.4897C81.392 52.4897 88.1172 45.6725 88.1172 37.2782H78.8731C78.8731 40.5087 76.2787 43.1288 73.105 43.1288ZM53.181 8C50.637 8 48.5716 10.0859 48.5716 12.6804C48.5716 15.275 50.637 17.3609 53.181 17.3609C55.7251 17.3609 57.7905 15.275 57.7905 12.6804C57.7905 10.0859 55.7251 8 53.181 8Z" fill="#3605F0"/>
<path fill-rule="evenodd" clip-rule="evenodd" d="M0.335938 17.3658H1.7213L0.335938 15.9922V17.3658ZM13.3331 56.0049L22.5772 52.4946V38.4278L13.3331 29.0923V56.0049ZM28.9247 44.8634V52.4946H36.4812L28.9247 44.8634Z" fill="#BA00FF"/>
<path fill-rule="evenodd" clip-rule="evenodd" d="M28.9247 33.6153V44.8585L36.4812 52.4897H38.1688V33.6153C38.2444 32.3943 39.2519 31.4277 40.4609 31.4277C40.5869 31.4277 40.7128 31.4531 40.8136 31.4531L33.7357 24.2798C30.8642 26.3657 28.9751 29.7742 28.9247 33.6153ZM0.335938 8V15.9618L1.7213 17.3609H13.3331V29.0874L22.5772 38.4229V17.3863H26.9096L17.6403 8H0.335938ZM48.5716 39.2623V52.5151H57.8157V48.5978L48.5716 39.2623Z" fill="#9B00FF"/>
<path fill-rule="evenodd" clip-rule="evenodd" d="M35.3962 8H17.6133L26.8826 17.3609H35.4214V8H35.3962ZM52.348 17.2846L48.6453 13.5453C48.9979 15.4531 50.4589 16.9539 52.348 17.2846ZM48.5697 22.0413V39.2623L57.8138 48.5978V22.8045L57.0834 22.0668H48.5697V22.0413ZM76.6799 41.8569C75.6975 42.6455 74.4633 43.1288 73.1031 43.1288C69.9042 43.1288 67.335 40.5087 67.335 37.2782C67.335 35.9046 67.7884 34.6582 68.5693 33.6661L61.9951 27.027C59.577 29.7234 58.0909 33.3355 58.0909 37.2782C58.0909 45.6979 64.8162 52.4897 73.1031 52.4897C77.0073 52.4897 80.5841 50.9634 83.254 48.496L76.6799 41.8569ZM33.7086 24.2798L40.8117 31.4531C41.114 31.504 41.3911 31.6057 41.6178 31.7329L48.4942 25.3482C46.4287 23.3132 43.5824 22.0668 40.4843 22.0668C37.9403 22.0413 35.6229 22.8808 33.7086 24.2798Z" fill="#6F00FF"/>
</g>
<defs>
<clipPath id="clip0_2015_166602">
<rect width="142.667" height="64" fill="white" transform="translate(0.335938)"/>
</clipPath>
</defs>
</svg>
